<?xml version="1.0" encoding="utf-8"?>
<svg class="ml-4" aria-hidden="true" focusable="false" width="37" height="37" viewBox="0 0 37 37" fill="#5D90A5" xmlns="http://www.w3.org/2000/svg">
    <path d="M20.392 4.81C20.0178 4.81115 19.6445 4.84731 19.277 4.918C19.2943 5.06304 19.3033 5.20894 19.304 5.355C19.3056 5.92655 19.1783 6.49111 18.9314 7.00663C18.6846 7.52215 18.3247 7.97535 17.8785 8.33249C17.4322 8.68963 16.9112 8.94151 16.3541 9.06938C15.797 9.19724 15.2183 9.1978 14.661 9.071C14.2981 10.2764 14.3244 11.5655 14.7361 12.7552C15.1478 13.9448 15.924 14.9743 16.9545 15.6975C17.9849 16.4207 19.217 16.8007 20.4757 16.7834C21.7345 16.7662 22.9558 16.3526 23.966 15.6015C24.9762 14.8504 25.724 13.8 26.103 12.5996C26.482 11.3991 26.473 10.1098 26.0772 8.91474C25.6814 7.71972 24.9191 6.67985 23.8984 5.94295C22.8778 5.20605 21.6508 4.80962 20.392 4.81V4.81Z" stroke="currentColor" stroke-width="2" stroke-linecap="round" stroke-linejoin="round"/>
    <path d="M20.392 1C22.9911 1 25.4838 2.0325 27.3216 3.87035C29.1595 5.70821 30.192 8.20088 30.192 10.8" stroke="currentColor" stroke-width="2" stroke-linecap="round" stroke-linejoin="round"/>
    <path d="M10.594 10.798C10.5932 12.26 10.9203 13.7035 11.5513 15.0222C12.1823 16.341 13.1011 17.5014 14.24 18.418" stroke="currentColor" stroke-width="2" stroke-linecap="round" stroke-linejoin="round"/>
    <path d="M28.283 18.418C31.2211 16.567 33.5795 13.9272 35.089 10.8C35.089 10.8 30.857 1 20.396 1C9.93501 1 5.69601 10.8 5.69601 10.8C5.69601 10.8 8.96201 17.876 14.241 18.42" stroke="currentColor" stroke-width="2" stroke-linecap="round" stroke-linejoin="round"/>
    <path d="M1.341 26.038L4.604 24.409L10.047 33.118L7.328 34.747" stroke="currentColor" stroke-width="2" stroke-linecap="round" stroke-linejoin="round"/>
    <path d="M15.493 25.495H22.019C22.596 25.495 23.1493 25.2658 23.5573 24.8578C23.9653 24.4498 24.1945 23.8965 24.1945 23.3195C24.1945 22.7425 23.9653 22.1892 23.5573 21.7812C23.1493 21.3732 22.596 21.144 22.019 21.144H13.549C12.6838 21.144 11.834 21.3731 11.086 21.808L5.13901 25.267" stroke="currentColor" stroke-width="2" stroke-linecap="round" stroke-linejoin="round"/>
    <path d="M22.802 25.347L32.084 21.32C32.6175 21.0991 33.2169 21.0991 33.7503 21.3201C34.2838 21.5411 34.7076 21.965 34.9285 22.4985C35.1494 23.032 35.1494 23.6314 34.9284 24.1648C34.7073 24.6983 34.2835 25.1221 33.75 25.343L24.131 29.963C23.459 30.2475 22.7367 30.3941 22.007 30.394H13.147C12.7602 30.3945 12.3805 30.498 12.047 30.694L9.48199 32.202" stroke="currentColor" stroke-width="2" stroke-linecap="round" stroke-linejoin="round"/>
</svg>